<svg xmlns="http://www.w3.org/2000/svg" version="1.1" xmlns:xlink="http://www.w3.org/1999/xlink" xmlns:svgjs="http://svgjs.dev/svgjs" width="128" height="128" viewBox="0 0 128 128"><g transform="matrix(0.8046875,0,0,0.8046875,12.278554296440468,3.1533937499999922)"><svg viewBox="0 0 80 95" data-background-color="#000000" preserveAspectRatio="xMidYMid meet" height="152" width="128" xmlns="http://www.w3.org/2000/svg" xmlns:xlink="http://www.w3.org/1999/xlink"><g id="tight-bounds" transform="matrix(1,0,0,1,0.17199666295886118,-0.24049999999999727)"><svg viewBox="0 0 79.65600667408229 95.481" height="95.481" width="79.65600667408229"><g><svg viewBox="0 0 79.65600667408229 95.481" height="95.481" width="79.65600667408229"><g><svg viewBox="0 0 79.65600667408229 95.481" height="95.481" width="79.65600667408229"><g id="textblocktransform"><svg viewBox="0 0 79.65600667408229 95.481" height="95.481" width="79.65600667408229" id="textblock"><g><svg viewBox="0 0 79.65600667408229 95.481" height="95.481" width="79.65600667408229"><g><svg viewBox="0 0 79.65600667408229 95.481" height="95.481" width="79.65600667408229"><g><svg xmlns="http://www.w3.org/2000/svg" viewBox="4.5 3.01 15 17.980000000000004" x="0" y="0" height="95.481" width="79.65600667408229" class="icon-icon-0" data-fill-palette-color="accent" id="icon-0"></svg></g></svg></g></svg></g></svg></g></svg></g><g></g></svg></g><defs></defs><mask id="74a72a9d-4265-4b3c-a7f0-e4a9612b8b00"><g id="SvgjsG1424"><svg viewBox="0 0 79.65600667408229 95.481" height="95.481" width="79.65600667408229"><g><svg viewBox="0 0 79.65600667408229 95.481" height="95.481" width="79.65600667408229"><g><svg viewBox="0 0 79.65600667408229 95.481" height="95.481" width="79.65600667408229"><g id="SvgjsG1423"><svg viewBox="0 0 79.65600667408229 95.481" height="95.481" width="79.65600667408229" id="SvgjsSvg1422"><g><svg viewBox="0 0 79.65600667408229 95.481" height="95.481" width="79.65600667408229"><g><svg viewBox="0 0 79.65600667408229 95.481" height="95.481" width="79.65600667408229"><g><svg xmlns="http://www.w3.org/2000/svg" viewBox="4.5 3.01 15 17.980000000000004" x="0" y="0" height="95.481" width="79.65600667408229" class="icon-icon-0" data-fill-palette-color="accent" id="SvgjsSvg1421"><g fill="white" stroke="none"><path d="M4.5 12l0-8.99 3.75 3.75 3.75 3.74 3.75-3.74 3.75-3.75 0 8.99 0 8.99-3.75-3.74-3.75-3.75-3.75 3.75-3.75 3.74 0-8.99z m4-2l-2-2 0 4 0 4 2-2 2-2-2-2z m9 2l0-4-2 2-2 2 1.99 2c1.1 1.1 2.01 2 2.01 2 0 0 0-1.8 0-4z" fill="white"></path></g></svg></g></svg></g></svg></g></svg></g></svg></g><g></g></svg></g><defs><mask></mask></defs></svg><rect width="79.65600667408229" height="95.481" fill="black" stroke="none" visibility="hidden"></rect></g></mask><linearGradient x1="0" x2="1" y1="0.578" y2="0.595" id="df38a48d-c7e6-49b1-a3d2-233be1095cbf"><stop stop-color="#6ee2f5" offset="0"></stop><stop stop-color="#6454f0" offset="1"></stop></linearGradient><rect width="79.65600667408229" height="95.481" fill="url(#df38a48d-c7e6-49b1-a3d2-233be1095cbf)" mask="url(#74a72a9d-4265-4b3c-a7f0-e4a9612b8b00)" data-fill-palette-color="accent"></rect></svg><rect width="79.65600667408229" height="95.481" fill="none" stroke="none" visibility="hidden"></rect></g></svg></g></svg>